# xmcd CD database file
#
# Track frame offsets:
#	150
#	11940
#	22685
#	36650
#	48015
#	59250
#	74082
#	86687
#	99160
#	107362
#	115795
#	128820
#	141620
#
# Disc length: 1983 seconds
#
# Revision: 4
# Processed by: cddbd v1.5.2PL0 Copyright (c) Steve Scherf et al.
# Submitted via: CDex 1.77
#
DISCID=af07bd0d
DTITLE=Johnny Cash and June Carter Cash - Carryin' On With
DYEAR=1968
DGENRE=Country
TTITLE0=Long-Legged Guitar Pickin' Man
TTITLE1=Shantytown
TTITLE2=It Ain't Me Babe
TTITLE3=Fast Boat To Sydney
TTITLE4=Pack Up Your Sorrows
TTITLE5=I Got A Woman
TTITLE6=Jackson
TTITLE7=Oh, What A Good Thing We Had
TTITLE8=You'll Be All Right
TTITLE9=No, No, No
TTITLE10=What'd I Say
TTITLE11=The Wind Changes [Bonus Track]
TTITLE12=From Sea To Shining Sea [Bonus Track]
EXTD=Sony Music Entertainment Inc. YEAR: 1968
EXTT0=
EXTT1=
EXTT2=
EXTT3=
EXTT4=
EXTT5=
EXTT6=
EXTT7=
EXTT8=
EXTT9=
EXTT10=
EXTT11=
EXTT12=
PLAYORDER=
